<svg xmlns="http://www.w3.org/2000/svg" xmlns:xlink="http://www.w3.org/1999/xlink" width="240" zoomAndPan="magnify" viewBox="0 0 180 83.249999" height="111" preserveAspectRatio="xMidYMid meet" version="1.0"><defs><g/><clipPath id="5871bc1204"><path d="M 20.835938 0.621094 L 159.089844 0.621094 L 159.089844 81.640625 L 20.835938 81.640625 Z M 20.835938 0.621094 " clip-rule="nonzero"/></clipPath></defs><g clip-path="url(#5871bc1204)"><path fill="#ffffff" d="M 155.679688 78.480469 L 24.320312 78.480469 L 24.320312 4.148438 L 155.679688 4.148438 Z M 20.835938 1.28125 L 20.835938 81.210938 C 20.835938 81.578125 21.132812 81.871094 21.5 81.871094 L 158.5 81.871094 C 158.863281 81.871094 159.160156 81.578125 159.160156 81.210938 L 159.160156 1.28125 C 159.160156 0.914062 158.863281 0.617188 158.5 0.617188 L 21.5 0.617188 C 21.132812 0.617188 20.835938 0.914062 20.835938 1.28125 " fill-opacity="1" fill-rule="nonzero"/></g><g fill="#ffffff" fill-opacity="1"><g transform="translate(25.317329, 56.218635)"><g><path d="M 23.15625 -25.828125 L 23.15625 -9.109375 C 23.15625 -7.328125 22.789062 -5.71875 22.0625 -4.28125 C 21.34375 -2.851562 20.234375 -1.722656 18.734375 -0.890625 C 17.242188 -0.0546875 15.363281 0.359375 13.09375 0.359375 C 9.863281 0.359375 7.414062 -0.515625 5.75 -2.265625 C 4.082031 -4.015625 3.25 -6.320312 3.25 -9.1875 L 3.25 -25.828125 L 6.515625 -25.828125 L 6.515625 -9.078125 C 6.515625 -6.984375 7.070312 -5.351562 8.1875 -4.1875 C 9.3125 -3.03125 11.007812 -2.453125 13.28125 -2.453125 C 15.613281 -2.453125 17.304688 -3.070312 18.359375 -4.3125 C 19.410156 -5.5625 19.9375 -7.160156 19.9375 -9.109375 L 19.9375 -25.828125 Z M 23.15625 -25.828125 "/></g></g></g><g fill="#ffffff" fill-opacity="1"><g transform="translate(51.754929, 56.218635)"><g><path d="M 23.984375 0 L 20.1875 0 L 6.359375 -21.453125 L 6.21875 -21.453125 C 6.269531 -20.609375 6.332031 -19.554688 6.40625 -18.296875 C 6.476562 -17.046875 6.515625 -15.757812 6.515625 -14.4375 L 6.515625 0 L 3.515625 0 L 3.515625 -25.828125 L 7.265625 -25.828125 L 21.046875 -4.453125 L 21.203125 -4.453125 C 21.171875 -4.835938 21.132812 -5.414062 21.09375 -6.1875 C 21.0625 -6.957031 21.023438 -7.796875 20.984375 -8.703125 C 20.953125 -9.609375 20.9375 -10.457031 20.9375 -11.25 L 20.9375 -25.828125 L 23.984375 -25.828125 Z M 23.984375 0 "/></g></g></g><g fill="#ffffff" fill-opacity="1"><g transform="translate(79.241348, 56.218635)"><g><path d="M 10.78125 0 L 1.453125 0 L 1.453125 -1.875 L 4.484375 -2.5625 L 4.484375 -23.21875 L 1.453125 -23.953125 L 1.453125 -25.828125 L 10.78125 -25.828125 L 10.78125 -23.953125 L 7.734375 -23.21875 L 7.734375 -2.5625 L 10.78125 -1.875 Z M 10.78125 0 "/></g></g></g><g fill="#ffffff" fill-opacity="1"><g transform="translate(91.501739, 56.218635)"><g><path d="M 11.6875 0 L 8.421875 0 L 8.421875 -22.96875 L 0.359375 -22.96875 L 0.359375 -25.828125 L 19.71875 -25.828125 L 19.71875 -22.96875 L 11.6875 -22.96875 Z M 11.6875 0 "/></g></g></g><g fill="#ffffff" fill-opacity="1"><g transform="translate(103.60378, 22.161394)"><g><path d="M 3.75 -6.65625 L 11.328125 -2.75 L 11.328125 -0.65625 L 1.4375 -5.890625 L 1.4375 -7.53125 L 11.328125 -12.765625 L 11.328125 -10.703125 L 3.75 -6.78125 Z M 3.75 -6.65625 "/></g></g></g><g fill="#ffffff" fill-opacity="1"><g transform="translate(116.37027, 22.161394)"><g><path d="M 11.71875 -5.84375 C 11.71875 -3.707031 11.28125 -2.066406 10.40625 -0.921875 C 9.539062 0.210938 8.203125 0.78125 6.390625 0.78125 C 4.585938 0.78125 3.242188 0.207031 2.359375 -0.9375 C 1.484375 -2.082031 1.046875 -3.71875 1.046875 -5.84375 L 1.046875 -8.1875 C 1.046875 -10.3125 1.492188 -11.941406 2.390625 -13.078125 C 3.285156 -14.210938 4.617188 -14.78125 6.390625 -14.78125 C 8.171875 -14.78125 9.503906 -14.210938 10.390625 -13.078125 C 11.273438 -11.941406 11.71875 -10.3125 11.71875 -8.1875 Z M 9.609375 -8.203125 C 9.609375 -9.128906 9.523438 -9.890625 9.359375 -10.484375 C 9.203125 -11.085938 8.976562 -11.5625 8.6875 -11.90625 C 8.394531 -12.257812 8.050781 -12.503906 7.65625 -12.640625 C 7.269531 -12.785156 6.847656 -12.859375 6.390625 -12.859375 C 5.941406 -12.859375 5.519531 -12.785156 5.125 -12.640625 C 4.738281 -12.503906 4.394531 -12.257812 4.09375 -11.90625 C 3.800781 -11.550781 3.570312 -11.078125 3.40625 -10.484375 C 3.238281 -9.890625 3.15625 -9.128906 3.15625 -8.203125 L 3.15625 -5.828125 C 3.15625 -4.898438 3.238281 -4.128906 3.40625 -3.515625 C 3.570312 -2.910156 3.800781 -2.429688 4.09375 -2.078125 C 4.394531 -1.734375 4.738281 -1.492188 5.125 -1.359375 C 5.519531 -1.222656 5.941406 -1.15625 6.390625 -1.15625 C 6.847656 -1.15625 7.269531 -1.222656 7.65625 -1.359375 C 8.050781 -1.492188 8.394531 -1.734375 8.6875 -2.078125 C 8.976562 -2.429688 9.203125 -2.910156 9.359375 -3.515625 C 9.523438 -4.117188 9.609375 -4.890625 9.609375 -5.828125 Z M 9.609375 -8.203125 "/></g></g></g><g fill="#ffffff" fill-opacity="1"><g transform="translate(129.13676, 22.161394)"><g><path d="M 11.703125 -4 C 11.703125 -3.4375 11.601562 -2.875 11.40625 -2.3125 C 11.21875 -1.75 10.910156 -1.234375 10.484375 -0.765625 C 10.066406 -0.304688 9.519531 0.0625 8.84375 0.34375 C 8.175781 0.632812 7.378906 0.78125 6.453125 0.78125 C 5.421875 0.78125 4.484375 0.640625 3.640625 0.359375 C 2.804688 0.0859375 2.03125 -0.332031 1.3125 -0.90625 L 2.34375 -2.546875 C 3.070312 -1.984375 3.765625 -1.601562 4.421875 -1.40625 C 5.085938 -1.207031 5.773438 -1.109375 6.484375 -1.109375 C 7.035156 -1.109375 7.507812 -1.191406 7.90625 -1.359375 C 8.300781 -1.523438 8.628906 -1.742188 8.890625 -2.015625 C 9.148438 -2.285156 9.335938 -2.59375 9.453125 -2.9375 C 9.566406 -3.289062 9.625 -3.644531 9.625 -4 L 9.625 -4.25 C 9.625 -5.25 9.359375 -6 8.828125 -6.5 C 8.304688 -7 7.5625 -7.25 6.59375 -7.25 C 5.945312 -7.25 5.375 -7.128906 4.875 -6.890625 C 4.382812 -6.648438 3.972656 -6.367188 3.640625 -6.046875 L 2.046875 -6.046875 L 2.53125 -14.546875 L 10.71875 -14.546875 L 10.71875 -12.765625 L 4.421875 -12.765625 L 4.1875 -8.0625 C 4.519531 -8.3125 4.945312 -8.523438 5.46875 -8.703125 C 6 -8.890625 6.578125 -8.984375 7.203125 -8.984375 C 7.910156 -8.984375 8.539062 -8.859375 9.09375 -8.609375 C 9.65625 -8.367188 10.128906 -8.035156 10.515625 -7.609375 C 10.898438 -7.179688 11.191406 -6.6875 11.390625 -6.125 C 11.597656 -5.5625 11.703125 -4.957031 11.703125 -4.3125 Z M 11.703125 -4 "/></g></g></g><g fill="#ffffff" fill-opacity="1"><g transform="translate(141.90325, 22.161394)"><g><path d="M 9.03125 -6.78125 L 1.4375 -10.703125 L 1.4375 -12.765625 L 11.328125 -7.53125 L 11.328125 -5.890625 L 1.4375 -0.65625 L 1.4375 -2.75 L 9.03125 -6.65625 Z M 9.03125 -6.78125 "/></g></g></g></svg>